PathFileType	4	(X/Y/Z)	C:/Users/beibeiliu/ov580/test_trc\sequence.13_training_dense_left.trc
DataRate	CameraRate	NumFrames	NumMarkers	Units	OrigDataRate	OrigDataStartFrame	OrigNumFrames
120	120	8	19	mm	120	27	79
Frame#	Time	ThumbCMC			ThumbMCP			ThumbIP			ThumbTip			IndexMCP			IndexPIP			IndexTip			MiddleMCP			MiddlePIP			MiddleTip			RingMCP			RingPIP			RingTip			PinkyMCP			PinkyPIP			PinkyTip			BackHand1			BackHand2			BackHand3	
		X0	Y0	Z0	X1	Y1	Z1	X2	Y2	Z2	X3	Y3	Z3	X4	Y4	Z4	X5	Y5	Z5	X6	Y6	Z6	X7	Y7	Z7	X8	Y8	Z8	X9	Y9	Z9	X10	Y10	Z10	X11	Y11	Z11	X12	Y12	Z12	X13	Y13	Z13	X14	Y14	Z14	X15	Y15	Z15	X16	Y16	Z16	X17	Y17	Z17	X18	Y18	Z18	
26	0.216667	-217.627	57.5195	44.9259	-200.393	84.21	31.5663	-175.553	83.9292	25.517	-154.785	74.2071	32.3812	-190.834	61.2755	-11.5291	-178.056	69.8837	-29.6818	-170.974	82.6015	-45.5027	-159.759	53.5473	-8.41381	-150.637	68.3271	-23.1894	-134.264	83.012	-35.7484	-148.719	49.4232	3.90717	-134.155	63.2506	-7.29136	-121.435	77.4275	-18.0772	-139.506	51.2563	31.3731	-146.984	75.4507	37.6879	-167.168	77.3463	50.1393	-173.057	21.6538	34.3756	-190.015	9.08785	56.6089	-204.66	27.72	34.0064	
27	0.225	-212.308	54.2365	45.9877	-204.445	86.3437	33.0928	-176.131	91.9119	22.9766	-151.293	85.4635	31.1156	-185.002	63.2802	-10.3694	-180.883	77.9336	-32.4404	-170.353	89.6252	-46.4479	-160.533	62.8383	-11.1433	-146.077	76.1846	-24.5621	-135.061	97.6409	-39.9595	-143.295	56.8424	6.5174	-130.712	75.3819	-6.9199	-121.677	87.8668	-15.0154	-135.056	62.0289	31.5681	-144.051	83.3343	36.2885	-167.192	81.1114	49.3038	-170.376	28.8415	34.5074	-180.175	15.0551	56.3073	-195.137	29.5494	31.9794	
28	0.233333	-213.544	55.6543	41.9288	-204.437	82.963	33.2788	-179.936	92.1766	25.2276	-156.632	88.6081	30.8292	-185.196	66.4768	-14.4421	-179.448	79.0297	-31.0688	-171.648	96.2082	-51.3278	-162.517	64.3125	-9.69717	-148.83	81.7782	-27.951	-136.231	97.5478	-37.4976	-142.992	64.1624	3.3341	-133.44	80.6682	-9.71576	-124.965	94.8147	-17.4742	-137.709	67.0425	27.7478	-146.62	88.836	39.1046	-168.963	82.9011	50.4058	-162.523	30.3781	30.4046	-178.758	15.4749	53.6338	-193.821	27.6983	31.4296	
29	0.241667	-214.003	56.151	43.9867	-201.3	83.6977	30.8253	-179.609	96.9403	23.1935	-152.461	90.1976	30.5574	-183.524	66.939	-13.1653	-180.196	81.0808	-32.3246	-175.332	97.3833	-51.6973	-156.175	63.4669	-11.0781	-145.528	79.1704	-26.671	-131.989	97.7146	-42.441	-143.067	62.9677	3.87355	-130.961	78.7532	-7.26438	-118.559	91.9312	-15.1041	-138.825	66.3995	27.762	-146.359	88.7426	38.8824	-169.169	81.6738	48.0855	-169.719	30.3695	31.3381	-180.577	18.5216	49.8069	-196.684	29.6334	29.551	
30	0.25	-211.017	56.9327	38.0467	-198.05	85.9013	24.5738	-175.472	88.7522	22.953	-150.228	80.1479	29.3143	-183.613	65.337	-19.8566	-173.869	72.812	-32.791	-164.985	84.2276	-56.0385	-155.183	54.0083	-8.68912	-138.978	64.4959	-26.4909	-123.536	74.0371	-40.765	-139.928	52.9257	3.39371	-123.564	65.4104	-5.86461	-114.318	78.9322	-18.0951	-135.681	59.2729	29.9311	-140.827	79.798	38.411	-169.341	78.4391	47.6194	-168.15	24.2212	29.8151	-185.685	15.0473	50.8795	-198.154	28.4446	27.521	
31	0.258333	-215.652	54.8193	32.5659	-196.124	79.8665	14.3247	-173.241	77.3002	11.6987	-146.48	70.2334	18.5915	-179.887	44.4811	-23.6133	-173.751	50.0356	-40.4653	-164.087	52.7923	-62.1749	-155.771	32.5555	-14.5697	-139.744	34.9311	-29.7851	-123.518	33.4885	-47.7688	-142.836	30.6035	7.11274	-128.153	36.9527	-5.78055	-110.681	42.849	-19.9579	-137.913	38.8695	30.6863	-138.555	66.0477	33.347	-161.288	71.6067	37.2452	-178.066	14.7351	32.3255	-197.805	13.4802	52.8222	-207.054	26.1763	24.5544	
32	0.266667	-218.075	53.1399	26.3662	-197.264	68.2931	5.57028	-172.031	64.2498	-1.16212	-151.525	50.5508	9.21767	-194.396	24.3685	-21.587	-182.797	19.1721	-43.1338	-173.369	13.9516	-63.2638	-170.997	6.79633	-9.75391	-157.277	-2.11038	-26.8966	-142.881	-10.8489	-45.2492	-158.559	6.29497	4.46525	-141.595	3.14198	-6.88592	-125.499	1.66277	-21.3577	-144.834	18.9493	27.1791	-140.882	42.4203	18.8663	-163.171	55.6584	25.8214	-189.69	6.01911	35.3898	-208.696	14.0037	56.1072	-213.337	20.0543	30.8073	
33	0.275	-218.316	62.8961	27.2296	-192.652	66.6719	3.16597	-170.194	50.8988	-5.49201	-156.136	35.9111	3.12209	-207.706	19.1198	-18.6496	-203.693	9.71187	-39.712	-199.588	2.00117	-61.3599	-196.405	-2.46561	-11.4662	-190.009	-16.5948	-25.9819	-183.793	-31.0299	-42.7946	-181.909	-7.1919	2.4716	-170.379	-17.0522	-9.95638	-157.26	-26.9749	-27.2811	-159.184	-0.559048	21.2107	-149.577	18.8141	12.5643	-158.618	40.7359	20.7201	-207.698	8.83573	35.586	-217.864	18.3763	55.8901	-225.441	26.4508	32.3274	
